<?xml version="1.0" standalone="no"?>
<!DOCTYPE svg PUBLIC "-//W3C//DTD SVG 1.1//EN" "http://www.w3.org/Graphics/SVG/1.1/DTD/svg11.dtd">
<svg version="1.1" xmlns="http://www.w3.org/2000/svg" viewBox="0 0 210.35890748501515 209.8006702196617" width="631.0767224550455" height="629.4020106589851"><!-- svg-source:excalidraw --><metadata></metadata><defs><style class="style-fonts">
      </style></defs><g stroke-linecap="round" transform="translate(10 10) rotate(0 95.17945374250758 94.90033510983085)"><path d="M0 0 C38.67 0, 77.34 0, 190.36 0 M0 0 C53.52 0, 107.03 0, 190.36 0 M190.36 0 C190.36 59.48, 190.36 118.95, 190.36 189.8 M190.36 0 C190.36 51.16, 190.36 102.33, 190.36 189.8 M190.36 189.8 C132.23 189.8, 74.1 189.8, 0 189.8 M190.36 189.8 C143.14 189.8, 95.92 189.8, 0 189.8 M0 189.8 C0 129.71, 0 69.63, 0 0 M0 189.8 C0 147.06, 0 104.33, 0 0" stroke="transparent" stroke-width="4" fill="none"></path></g><g transform="translate(69.81701387629255 27.134845839988884) rotate(0 40.14095137581262 83.62698055603732)"><text x="0" y="117.8805917917899" font-family="Excalifont, Xiaolai, sans-serif, Segoe UI Emoji" font-size="133.80316888965936px" fill="#1e1e1e" text-anchor="start" style="white-space: pre;" direction="ltr" dominant-baseline="alphabetic">⊨</text></g></svg>