<?xml version="1.0" standalone="no"?>
<!DOCTYPE svg PUBLIC "-//W3C//DTD SVG 1.1//EN" "http://www.w3.org/Graphics/SVG/1.1/DTD/svg11.dtd">
<svg version="1.1" xmlns="http://www.w3.org/2000/svg" viewBox="0 0 210.35890748501515 209.8006702196617" width="631.0767224550455" height="629.4020106589851"><!-- svg-source:excalidraw --><metadata></metadata><defs><style class="style-fonts">
      </style></defs><g transform="translate(66.26778273803393 27.69308310534325) rotate(0 36.61131961826686 83.3478619233615)"><text x="0" y="117.4871461671703" font-family="Excalifont, Xiaolai, sans-serif, Segoe UI Emoji" font-size="133.3565790773783px" fill="#1e1e1e" text-anchor="start" style="white-space: pre;" direction="ltr" dominant-baseline="alphabetic">≤</text></g><g stroke-linecap="round" transform="translate(10 10) rotate(0 95.17945374250758 94.90033510983085)"><path d="M0 0 C62.92 0, 125.85 0, 190.36 0 M0 0 C56.1 0, 112.21 0, 190.36 0 M190.36 0 C190.36 55.44, 190.36 110.88, 190.36 189.8 M190.36 0 C190.36 42.37, 190.36 84.73, 190.36 189.8 M190.36 189.8 C121.99 189.8, 53.63 189.8, 0 189.8 M190.36 189.8 C148.51 189.8, 106.66 189.8, 0 189.8 M0 189.8 C0 150.55, 0 111.3, 0 0 M0 189.8 C0 132.81, 0 75.82, 0 0" stroke="transparent" stroke-width="4" fill="none"></path></g></svg>