<?xml version="1.0" standalone="no"?>
<!DOCTYPE svg PUBLIC "-//W3C//DTD SVG 1.1//EN" "http://www.w3.org/Graphics/SVG/1.1/DTD/svg11.dtd">
<svg version="1.1" xmlns="http://www.w3.org/2000/svg" viewBox="0 0 210.35890748501515 209.8006702196617" width="631.0767224550455" height="629.4020106589851"><!-- svg-source:excalidraw --><metadata></metadata><defs><style class="style-fonts">
      </style></defs><g transform="translate(72.43042683999556 42.37776139041307) rotate(0 30.455878990931524 64.6469135340717)"><text x="30.45587899093112" y="91.1262893176275" font-family="Excalifont, Xiaolai, sans-serif, Segoe UI Emoji" font-size="103.43506165451474px" fill="#1e1e1e" text-anchor="middle" style="white-space: pre;" direction="ltr" dominant-baseline="alphabetic">‖</text></g><g stroke-linecap="round" transform="translate(10 10) rotate(0 95.17945374250758 94.90033510983085)"><path d="M0 0 C75.26 0, 150.52 0, 190.36 0 M0 0 C49.27 0, 98.55 0, 190.36 0 M190.36 0 C190.36 71.23, 190.36 142.46, 190.36 189.8 M190.36 0 C190.36 69, 190.36 138, 190.36 189.8 M190.36 189.8 C141.63 189.8, 92.91 189.8, 0 189.8 M190.36 189.8 C141.06 189.8, 91.76 189.8, 0 189.8 M0 189.8 C0 129.85, 0 69.91, 0 0 M0 189.8 C0 141.52, 0 93.24, 0 0" stroke="transparent" stroke-width="4" fill="none"></path></g></svg>